Coordinates
version=1
nRows=12
nColumns=24
inDegrees=yes

Units are S.I. units (second, meters, Newtons, ...)
Angles are in degrees.

endheader
time	pelvis_tilt	pelvis_list	pelvis_rotation	pelvis_tx	pelvis_ty	pelvis_tz	hip_flexion_r	hip_adduction_r	hip_rotation_r	knee_angle_r	ankle_angle_r	subtalar_angle_r	mtp_angle_r	hip_flexion_l	hip_adduction_l	hip_rotation_l	knee_angle_l	ankle_angle_l	subtalar_angle_l	mtp_angle_l	lumbar_extension	lumbar_bending	lumbar_rotation
      1.28300000	     -1.21728968	      4.40118106	     -2.84348414	      0.32821743	      0.90795585	      0.30105317	     15.36315235	     -8.33402009	     -8.76749726	    -72.82418538	     -1.71624296	      1.28502666	      6.89409178	     12.96078209	      7.31406077	     -2.78892369	    -19.80896090	      9.45919209	     -7.10036157	      3.26482447	     -4.65833738	     -6.84716586	      3.37489827
      1.28716667	     -1.18224409	      4.20484794	     -2.73282880	      0.33324830	      0.90925162	      0.30078110	     15.96422961	     -8.13142366	     -8.99591424	    -72.58612856	     -1.32712099	      1.48627120	      6.83856307	     12.25812656	      7.17965369	     -2.55077784	    -19.21626321	      9.49214470	     -7.11683716	      3.25038749	     -4.74465841	     -6.62640139	      3.02854618
      1.29133333	     -1.15509518	      3.98546872	     -2.60657384	      0.33826100	      0.91051725	      0.30050942	     16.55024088	     -7.89748788	     -9.23863899	    -72.27205697	     -0.93397342	      1.66539794	      6.79833759	     11.57614659	      7.01178740	     -2.32934274	    -18.64413279	      9.49706905	     -7.09684527	      3.23767035	     -4.82486224	     -6.36515885	      2.75925760
      1.29550000	     -1.11980920	      3.77180419	     -2.47496528	      0.34326334	      0.91175987	      0.30022007	     17.11351254	     -7.67515273	     -9.48742782	    -71.89895989	     -0.54580975	      1.86205624	      6.75740144	     10.88163435	      6.84827006	     -2.10761954	    -18.05545825	      9.47243050	     -7.08352773	      3.22168784	     -4.91577386	     -6.10261158	      2.45700811
      1.29966667	     -1.09022042	      3.51835438	     -2.33282271	      0.34823633	      0.91297922	      0.29995240	     17.65679357	     -7.39722616	     -9.74153321	    -71.43794134	     -0.18459621	      2.08737649	      6.75063286	     10.21136573	      6.63002257	     -1.90565552	    -17.50487521	      9.47813325	     -7.00903581	      3.21637586	     -5.01560066	     -5.79275821	      2.27780570
      1.30383333	     -1.02123631	      3.28475328	     -2.19216148	      0.35322681	      0.91421390	      0.29966617	     18.14031288	     -7.15304130	     -9.99944190	    -70.91769461	      0.17188262	      2.35779036	      6.74633896	      9.48070408	      6.43591086	     -1.69269392	    -16.91201033	      9.48346428	     -6.96142842	      3.21023037	     -5.15814283	     -5.50928264	      1.99816939
      1.30800000	     -0.93249645	      3.06020137	     -2.04448587	      0.35824187	      0.91544003	      0.29935652	     18.57995794	     -6.93147240	    -10.27566059	    -70.33320823	      0.51664000	      2.64042664	      6.74311869	      8.71905389	      6.25168044	     -1.47541812	    -16.29477828	      9.48727956	     -6.95166661	      3.20300599	     -5.29061273	     -5.24551604	      1.66270241
      1.31216667	     -0.85518257	      2.81936735	     -1.89092384	      0.36321853	      0.91660823	      0.29906147	     19.01648977	     -6.68292413	    -10.54892277	    -69.68292240	      0.84811825	      2.91752281	      6.74547995	      7.98243157	      6.04124708	     -1.26278274	    -15.69608276	      9.46861168	     -6.91905949	      3.19714654	     -5.43377371	     -4.95054434	      1.37993555
      1.31633333	     -0.76288533	      2.58092170	     -1.73601094	      0.36818436	      0.91775025	      0.29876045	     19.41984506	     -6.43992679	    -10.82374479	    -68.97167140	      1.16944696	      3.20542898	      6.75165518	      7.23187928	      5.82868261	     -1.05891798	    -15.09474708	      9.45263714	     -6.87725691	      3.19295481	     -5.59545639	     -4.65699730	      1.09974678
      1.32050000	     -0.66499065	      2.35038382	     -1.57486157	      0.37314429	      0.91885320	      0.29846237	     19.79941879	     -6.20635785	    -11.10215322	    -68.20174437	      1.49261888	      3.47726828	      6.75994430	      6.47326267	      5.62118091	     -0.84515016	    -14.47958296	      9.38894636	     -6.85898681	      3.18846318	     -5.76075099	     -4.37950498	      0.77102398
      1.32466667	     -0.55706542	      2.10852672	     -1.41708602	      0.37810084	      0.91991610	      0.29817095	     20.14922881	     -5.96007039	    -11.38106013	    -67.36497786	      1.77711509	      3.75942145	      6.76952802	      5.71370631	      5.39310672	     -0.66008462	    -13.88617340	      9.40220896	     -6.80102735	      3.18863568	     -5.93656083	     -4.07617171	      0.53292959
      1.32883333	     -0.43866903	      1.87428090	     -1.25507668	      0.38304568	      0.92093856	      0.29787716	     20.47138522	     -5.72238024	    -11.66113514	    -66.47295659	      2.05746771	      4.02441868	      6.78017620	      4.94570883	      5.16898331	     -0.47830737	    -13.28909453	      9.38140273	     -6.74904222	      3.19017820	     -6.12636046	     -3.78238848	      0.26261757
